<svg width="156" height="150" viewBox="0 0 156 150" fill="none" xmlns="http://www.w3.org/2000/svg">
<path d="M81.2213 149.13H81.0713C76.8913 149.1 72.9913 148.03 69.4713 145.94C66.0213 143.85 63.2913 141.04 61.2813 137.57C59.2413 134.13 58.2013 130.21 58.2313 126.01C58.2513 121.81 59.3413 117.91 61.4613 114.42C63.2713 111.37 65.7013 108.82 68.6713 106.87C70.3813 104.34 72.5513 102.19 75.1213 100.49C75.7413 99.5796 76.4213 98.7296 77.1413 97.9296C75.8913 97.8796 74.6713 97.7296 73.4713 97.4896C72.0013 97.7696 70.4913 97.8996 68.9413 97.8996C67.3913 97.8996 65.8813 97.7396 64.4113 97.4396C62.9513 97.7196 61.4113 97.8396 59.8813 97.8496C58.3313 97.8496 56.8213 97.6896 55.3513 97.3896C53.8913 97.6696 52.3713 97.7996 50.8213 97.7996C49.2713 97.7996 47.7613 97.6396 46.2913 97.3396C44.8213 97.6196 43.3213 97.7496 41.7613 97.7496C40.2113 97.7496 38.7013 97.5896 37.2313 97.2896C35.7613 97.5696 34.2513 97.6996 32.7013 97.6996C31.1513 97.6996 29.6413 97.5396 28.1713 97.2396C26.7113 97.5196 25.1813 97.6496 23.6413 97.6496C19.4613 97.6196 15.5613 96.5496 12.0413 94.4596C8.61128 92.3796 5.89128 89.6196 3.88128 86.2296C1.77128 82.5996 0.751285 78.6896 0.771285 74.5196C0.791285 70.3196 1.88128 66.4196 4.00128 62.9296C6.01128 59.5496 8.78128 56.7796 12.1913 54.7696C15.8013 52.6796 19.6913 51.6996 23.8913 51.6796C25.4413 51.6796 26.9513 51.8396 28.4213 52.1396C29.8913 51.8596 31.4013 51.7396 32.9613 51.7296C34.5113 51.7296 36.0213 51.8896 37.4913 52.1896C38.9613 51.9096 40.4713 51.7896 42.0313 51.7796C43.5813 51.7796 45.0913 51.9396 46.5613 52.2396C48.0313 51.9596 49.5313 51.8296 51.0913 51.8296C52.6413 51.8296 54.1513 51.9896 55.6213 52.2896C57.0913 52.0096 58.6213 51.8896 60.1613 51.8796C61.7113 51.8796 63.2213 52.0396 64.6913 52.3396C66.1713 52.0596 67.6713 51.9296 69.2313 51.9296C70.7813 51.9296 72.2913 52.0896 73.7613 52.3896C74.9513 52.1596 76.1713 52.0296 77.4113 51.9896C76.6713 51.1596 75.9813 50.2796 75.3613 49.3496C72.8113 47.5996 70.6813 45.4496 69.0013 42.8996C66.0913 40.9096 63.7313 38.3996 61.9513 35.3896C59.8613 31.7796 58.8313 27.8696 58.8613 23.6896C58.8813 19.4896 59.9713 15.5896 62.0913 12.0996C64.1013 8.71961 66.8713 5.94961 70.2813 3.93961C73.8513 1.86961 77.7113 0.849609 81.8313 0.849609C81.8813 0.849609 81.9313 0.849609 81.9813 0.849609C86.1813 0.869609 90.0813 1.95961 93.5713 4.07961C96.5813 5.86961 99.1113 8.28961 101.051 11.2396C103.551 12.9196 105.671 15.0496 107.371 17.5896C109.931 19.2996 112.111 21.4796 113.831 24.0796C116.411 25.8196 118.591 28.0496 120.311 30.7096C122.721 32.3796 124.771 34.4796 126.421 36.9596C128.861 38.6096 130.941 40.6896 132.611 43.1596C135.231 44.9196 137.431 47.1596 139.171 49.8296C141.681 51.5396 143.811 53.7196 145.501 56.3096C148.351 58.2496 150.711 60.7996 152.491 63.8596C154.531 67.2996 155.571 71.2096 155.541 75.4196C155.521 79.5996 154.441 83.4996 152.351 87.0196C150.531 90.0096 148.191 92.4596 145.341 94.3696C143.621 96.9296 141.481 99.0696 138.951 100.77C137.201 103.4 134.971 105.62 132.301 107.38C130.601 109.82 128.501 111.87 126.041 113.5C124.371 115.96 122.301 118.02 119.861 119.68C118.111 122.32 115.911 124.51 113.301 126.24C111.541 128.82 109.361 130.96 106.761 132.66C105.021 135.19 102.871 137.29 100.311 138.97C98.3613 141.88 95.7813 144.29 92.6713 146.09C89.2613 148.11 85.4013 149.15 81.2613 149.15L81.2213 149.13Z" fill="#FFC852"/>
<path d="M47.8419 74.8094C47.8619 72.0594 47.2019 69.5595 45.8619 67.3095C44.5319 64.9995 42.7119 63.1694 40.4219 61.8094C38.1819 60.4494 35.6919 59.7594 32.9419 59.7394C30.1919 59.7194 27.6719 60.3794 25.3619 61.7194C23.1019 63.0494 21.3019 64.8694 19.9319 67.1595C18.5719 69.3995 17.8819 71.8894 17.8619 74.6394C17.8419 77.3894 18.5019 79.9094 19.8419 82.2194C21.1819 84.4794 22.9619 86.2794 25.2019 87.6394C27.4919 88.9994 30.0119 89.6894 32.7519 89.7094C35.5019 89.7294 38.0019 89.0694 40.2519 87.7294C42.5619 86.3994 44.3919 84.6094 45.7519 82.3694C47.1119 80.0794 47.8019 77.5594 47.8219 74.8194L47.8419 74.8094ZM56.9019 74.8594C56.8819 77.6094 56.1919 80.1194 54.8319 82.4094C53.4719 84.6494 51.6419 86.4394 49.3319 87.7694C47.0719 89.0994 44.5719 89.7594 41.8319 89.7494C39.0819 89.7294 36.5719 89.0394 34.2819 87.6794C32.0419 86.3194 30.2519 84.5094 28.9219 82.2494C27.5919 79.9394 26.9319 77.4194 26.9419 74.6694C26.9619 71.9194 27.6419 69.4295 29.0119 67.1894C30.3719 64.8994 32.1819 63.0895 34.4419 61.7495C36.7519 60.4194 39.2719 59.7595 42.0219 59.7695C44.7719 59.7895 47.2619 60.4795 49.5019 61.8395C51.7919 63.1995 53.6019 65.0395 54.9419 67.3395C56.2819 69.5994 56.9319 72.0994 56.9219 74.8394L56.9019 74.8594ZM65.9619 74.9094C65.9819 72.1594 65.3219 69.6595 63.9819 67.4095C62.6519 65.0994 60.8319 63.2695 58.5419 61.9095C56.3019 60.5494 53.8119 59.8595 51.0619 59.8395C48.3119 59.8195 45.7919 60.4795 43.4819 61.8195C41.2219 63.1595 39.4219 64.9694 38.0519 67.2594C36.6919 69.4995 36.0019 71.9894 35.9819 74.7394C35.9619 77.4894 36.6219 80.0094 37.9619 82.3194C39.3019 84.5794 41.0819 86.3794 43.3219 87.7494C45.6119 89.1094 48.1319 89.7994 50.8719 89.8194C53.6219 89.8394 56.1219 89.1794 58.3719 87.8394C60.6819 86.5094 62.5119 84.7194 63.8719 82.4794C65.2319 80.1894 65.9219 77.6694 65.9419 74.9294L65.9619 74.9094ZM93.1519 75.0694C93.1319 77.8194 92.4419 80.3294 91.0819 82.6194C89.7219 84.8594 87.8919 86.6494 85.5819 87.9794C83.3219 89.3194 80.8219 89.9694 78.0819 89.9594C75.3319 89.9394 72.8219 89.2494 70.5319 87.8894C68.2919 86.5294 66.5019 84.7194 65.1719 82.4694C63.8419 80.1594 63.1819 77.6394 63.1919 74.8894C63.2119 72.1394 63.9019 69.6495 65.2619 67.4095C66.6219 65.1194 68.4319 63.3094 70.6919 61.9694C73.0019 60.6394 75.5219 59.9795 78.2719 59.9894C81.0219 60.0094 83.5119 60.6994 85.7519 62.0594C88.0419 63.4194 89.8519 65.2595 91.1919 67.5595C92.5319 69.8195 93.1819 72.3194 93.1719 75.0594L93.1519 75.0694ZM102.212 75.1194C102.232 72.3694 101.572 69.8694 100.232 67.6194C98.9019 65.3094 97.0819 63.4795 94.7919 62.1194C92.5519 60.7594 90.0619 60.0695 87.3119 60.0494C84.5619 60.0294 82.0419 60.6894 79.7319 62.0294C77.4719 63.3694 75.6719 65.1794 74.3019 67.4694C72.9419 69.7094 72.2519 72.1994 72.2319 74.9494C72.2119 77.6994 72.8719 80.2195 74.2119 82.5294C75.5519 84.7895 77.3319 86.5894 79.5719 87.9594C81.8619 89.3194 84.3819 90.0095 87.1219 90.0294C89.8719 90.0494 92.3719 89.3894 94.6219 88.0494C96.9319 86.7194 98.7619 84.9294 100.122 82.6894C101.482 80.3994 102.172 77.8794 102.192 75.1394L102.212 75.1194ZM75.0219 74.9594C75.0019 77.7094 74.3119 80.2194 72.9519 82.5094C71.5919 84.7494 69.7619 86.5394 67.4519 87.8694C65.1919 89.2094 62.6919 89.8595 59.9519 89.8494C57.2019 89.8295 54.6919 89.1395 52.4019 87.7794C50.1619 86.4194 48.3719 84.6095 47.0419 82.3494C45.7119 80.0395 45.0519 77.5194 45.0619 74.7694C45.0819 72.0194 45.7719 69.5294 47.1319 67.2894C48.4919 64.9994 50.3019 63.1894 52.5619 61.8494C54.8619 60.5194 57.3919 59.8595 60.1419 59.8694C62.8919 59.8895 65.3819 60.5794 67.6219 61.9394C69.9119 63.2994 71.7219 65.1395 73.0619 67.4394C74.3919 69.6994 75.0519 72.1994 75.0419 74.9394L75.0219 74.9594ZM84.0819 75.0094C84.1019 72.2594 83.4419 69.7594 82.1019 67.5094C80.7719 65.1994 78.9519 63.3694 76.6619 62.0094C74.4219 60.6494 71.9319 59.9594 69.1819 59.9394C66.4319 59.9194 63.9119 60.5794 61.6019 61.9194C59.3419 63.2495 57.5419 65.0694 56.1719 67.3594C54.8119 69.5994 54.1219 72.0894 54.1019 74.8394C54.0819 77.5894 54.7419 80.1095 56.0819 82.4194C57.4219 84.6795 59.2019 86.4794 61.4419 87.8494C63.7319 89.2094 66.2519 89.8995 68.9919 89.9194C71.7419 89.9394 74.2419 89.2794 76.4919 87.9394C78.8019 86.6094 80.6319 84.8194 81.9919 82.5794C83.3519 80.2894 84.0419 77.7694 84.0619 75.0294L84.0819 75.0094ZM129.402 75.2794C129.382 78.0294 128.692 80.5394 127.332 82.8294C125.972 85.0694 124.142 86.8594 121.832 88.1894C119.582 89.5194 117.072 90.1795 114.332 90.1694C111.582 90.1495 109.072 89.4594 106.782 88.0994C104.542 86.7394 102.752 84.9294 101.422 82.6794C100.092 80.3694 99.4319 77.8494 99.4419 75.0994C99.4619 72.3494 100.152 69.8595 101.512 67.6194C102.872 65.3294 104.682 63.5195 106.942 62.1795C109.252 60.8494 111.772 60.1895 114.522 60.1995C117.272 60.2195 119.762 60.9095 122.002 62.2695C124.292 63.6295 126.102 65.4695 127.442 67.7695C128.772 70.0294 129.432 72.5294 129.422 75.2694L129.402 75.2794ZM138.462 75.3294C138.482 72.5794 137.822 70.0794 136.482 67.8294C135.152 65.5194 133.332 63.6894 131.042 62.3294C128.802 60.9694 126.312 60.2794 123.562 60.2594C120.812 60.2394 118.292 60.8994 115.982 62.2394C113.722 63.5794 111.922 65.3894 110.552 67.6794C109.192 69.9194 108.502 72.4094 108.482 75.1594C108.462 77.9094 109.122 80.4295 110.462 82.7394C111.792 84.9995 113.582 86.7994 115.822 88.1694C118.112 89.5294 120.632 90.2195 123.372 90.2394C126.122 90.2594 128.622 89.5994 130.872 88.2594C133.182 86.9294 135.012 85.1394 136.372 82.8994C137.732 80.6094 138.422 78.0894 138.442 75.3494L138.462 75.3294ZM111.272 75.1694C111.252 77.9194 110.562 80.4294 109.202 82.7194C107.842 84.9594 106.012 86.7494 103.702 88.0794C101.452 89.4194 98.9419 90.0695 96.2019 90.0594C93.4519 90.0395 90.9419 89.3494 88.6519 87.9894C86.4119 86.6294 84.6219 84.8195 83.2919 82.5594C81.9619 80.2495 81.3019 77.7294 81.3119 74.9794C81.3319 72.2294 82.0219 69.7394 83.3819 67.4994C84.7419 65.2094 86.5519 63.3994 88.8119 62.0594C91.1219 60.7294 93.6419 60.0695 96.3919 60.0794C99.1419 60.0994 101.632 60.7894 103.872 62.1494C106.162 63.5094 107.972 65.3494 109.302 67.6494C110.642 69.9094 111.302 72.4094 111.282 75.1494L111.272 75.1694ZM120.332 75.2194C120.352 72.4694 119.692 69.9694 118.352 67.7194C117.022 65.4094 115.202 63.5794 112.912 62.2194C110.672 60.8594 108.182 60.1694 105.432 60.1494C102.682 60.1294 100.162 60.7894 97.8519 62.1294C95.5919 63.4594 93.7919 65.2794 92.4219 67.5694C91.0619 69.8094 90.3719 72.2994 90.3519 75.0494C90.3319 77.7994 90.9919 80.3195 92.3319 82.6294C93.6719 84.8895 95.4519 86.6894 97.6919 88.0594C99.9819 89.4194 102.502 90.1095 105.242 90.1294C107.992 90.1494 110.492 89.4894 112.742 88.1494C115.052 86.8194 116.882 85.0294 118.242 82.7894C119.602 80.4994 120.292 77.9794 120.312 75.2394L120.332 75.2194ZM147.522 75.3794C147.502 78.1294 146.812 80.6394 145.452 82.9294C144.092 85.1694 142.262 86.9594 139.952 88.2894C137.702 89.6294 135.192 90.2794 132.452 90.2694C129.702 90.2495 127.192 89.5594 124.902 88.1994C122.662 86.8394 120.872 85.0294 119.542 82.7694C118.212 80.4594 117.552 77.9394 117.562 75.1894C117.582 72.4394 118.272 69.9494 119.632 67.7094C120.992 65.4194 122.802 63.6095 125.052 62.2695C127.362 60.9394 129.882 60.2794 132.632 60.2894C135.382 60.3094 137.872 60.9995 140.112 62.3595C142.402 63.7195 144.212 65.5594 145.552 67.8594C146.882 70.1194 147.542 72.6194 147.532 75.3594L147.522 75.3794ZM96.2119 126.239C96.1919 128.989 95.5019 131.479 94.1419 133.719C92.7819 136.009 90.9419 137.819 88.6419 139.159C86.3819 140.499 83.8819 141.149 81.1419 141.139C78.3919 141.119 75.8819 140.429 73.5919 139.069C71.3519 137.709 69.5619 135.879 68.2319 133.569C66.9019 131.319 66.2419 128.809 66.2519 126.069C66.2719 123.319 66.9619 120.829 68.3219 118.589C69.6819 116.299 71.4919 114.489 73.7519 113.149C76.0619 111.809 78.5819 111.159 81.3319 111.169C84.0819 111.189 86.5719 111.879 88.8119 113.239C91.1019 114.599 92.9119 116.429 94.2519 118.739C95.5919 120.989 96.2419 123.499 96.2319 126.239H96.2119ZM141.122 81.7794C141.142 79.0294 140.482 76.5294 139.142 74.2794C137.802 71.9694 135.992 70.1395 133.702 68.7795C131.462 67.4195 128.972 66.7294 126.222 66.7094C123.472 66.6894 120.952 67.3494 118.642 68.6894C116.392 70.0195 114.582 71.8394 113.212 74.1294C111.852 76.3694 111.162 78.8594 111.142 81.6094C111.122 84.3594 111.782 86.8794 113.122 89.1894C114.452 91.4494 116.242 93.2494 118.482 94.6194C120.772 95.9794 123.292 96.6694 126.032 96.6894C128.782 96.7094 131.282 96.0494 133.532 94.7094C135.842 93.3794 137.672 91.5894 139.032 89.3494C140.392 87.0594 141.082 84.5394 141.102 81.7994L141.122 81.7794ZM134.792 88.1794C134.772 90.9294 134.062 93.4394 132.652 95.7294C131.292 97.9694 129.482 99.7594 127.232 101.089C124.972 102.419 122.472 103.089 119.732 103.069C116.982 103.049 114.472 102.359 112.182 100.999C109.942 99.6394 108.152 97.8294 106.822 95.5694C105.482 93.2594 104.822 90.7394 104.842 87.9894C104.862 85.2394 105.552 82.7494 106.912 80.5094C108.272 78.2194 110.082 76.4094 112.342 75.0694C114.642 73.7394 117.172 73.0794 119.922 73.0894C122.672 73.1094 125.162 73.7994 127.402 75.1594C129.642 76.5194 131.432 78.3494 132.762 80.6594C134.142 82.9194 134.832 85.4194 134.812 88.1594L134.792 88.1794ZM128.312 94.4294C128.332 91.6794 127.672 89.1794 126.332 86.9294C125.002 84.6194 123.182 82.7894 120.892 81.4294C118.652 80.0694 116.162 79.3794 113.412 79.3594C110.662 79.3394 108.142 79.9995 105.832 81.3394C103.582 82.6794 101.772 84.4894 100.402 86.7794C99.0419 89.0194 98.3519 91.5094 98.3319 94.2594C98.3119 97.0094 98.9719 99.5294 100.312 101.839C101.652 104.089 103.432 105.899 105.672 107.259C107.962 108.619 110.482 109.309 113.222 109.329C115.972 109.349 118.472 108.689 120.722 107.349C123.032 106.019 124.862 104.229 126.222 101.989C127.582 99.6994 128.272 97.1794 128.292 94.4394L128.312 94.4294ZM121.912 100.759C121.892 103.509 121.202 106.019 119.842 108.309C118.482 110.549 116.652 112.339 114.342 113.669C112.092 115.009 109.582 115.659 106.842 115.649C104.092 115.629 101.582 114.939 99.2919 113.579C97.0519 112.219 95.2619 110.409 93.9319 108.149C92.6019 105.839 91.9419 103.319 91.9519 100.569C91.9719 97.8194 92.6619 95.3294 94.0219 93.0894C95.3819 90.7994 97.1919 88.9894 99.4519 87.6494C101.752 86.3194 104.282 85.6594 107.032 85.6694C109.782 85.6894 112.272 86.3794 114.512 87.7394C116.802 89.0994 118.612 90.9394 119.952 93.2394C121.282 95.4995 121.952 97.9995 121.932 100.739L121.912 100.759ZM115.582 107.159C115.602 104.409 114.942 101.909 113.602 99.6594C112.262 97.3494 110.452 95.5194 108.162 94.1594C105.922 92.7994 103.432 92.1094 100.682 92.0894C97.9319 92.0695 95.4119 92.7294 93.1019 94.0694C90.8419 95.4094 89.0419 97.2194 87.6719 99.5094C86.3119 101.749 85.6219 104.239 85.6019 106.989C85.5819 109.739 86.2419 112.259 87.5819 114.569C88.9119 116.819 90.7019 118.629 92.9419 119.989C95.2319 121.349 97.7519 122.039 100.492 122.059C103.242 122.079 105.742 121.419 107.992 120.079C110.302 118.739 112.132 116.959 113.492 114.719C114.852 112.429 115.542 109.909 115.562 107.169L115.582 107.159ZM109.182 113.489C109.162 116.239 108.472 118.749 107.112 121.039C105.752 123.279 103.922 125.069 101.612 126.399C99.3519 127.729 96.8519 128.399 94.1119 128.379C91.3619 128.359 88.8519 127.669 86.5619 126.309C84.2719 124.949 82.4619 123.139 81.1219 120.879C79.8419 118.569 79.2019 116.049 79.2219 113.299C79.2419 110.549 79.9019 108.059 81.2119 105.819C82.5719 103.529 84.4119 101.719 86.7119 100.379C89.0219 99.0494 91.5419 98.3894 94.2919 98.3994C97.0419 98.4194 99.5319 99.1094 101.772 100.469C104.062 101.829 105.872 103.669 107.212 105.969C108.552 108.229 109.202 110.729 109.192 113.469L109.182 113.489ZM102.702 119.819C102.722 117.069 102.062 114.569 100.722 112.319C99.3919 110.009 97.5719 108.179 95.2819 106.819C93.0419 105.459 90.5519 104.769 87.8019 104.749C85.0519 104.729 82.5319 105.389 80.2219 106.729C77.9619 108.059 76.1619 109.879 74.7919 112.169C73.4319 114.409 72.7419 116.899 72.7219 119.649C72.7019 122.399 73.3619 124.919 74.7019 127.229C76.0419 129.489 77.8219 131.289 80.0619 132.659C82.3519 134.019 84.8719 134.709 87.6119 134.729C90.3619 134.749 92.8619 134.089 95.1119 132.749C97.4219 131.419 99.2519 129.629 100.612 127.389C101.972 125.099 102.662 122.579 102.682 119.839L102.702 119.819ZM141.202 68.8795C141.222 66.1295 140.562 63.6294 139.222 61.3794C137.882 59.0694 136.072 57.2394 133.782 55.8794C131.542 54.5194 129.052 53.8294 126.302 53.8094C123.552 53.7894 121.032 54.4494 118.722 55.7894C116.462 57.1294 114.662 58.9394 113.292 61.2295C111.932 63.4695 111.242 65.9594 111.222 68.7094C111.202 71.4594 111.862 73.9794 113.202 76.2894C114.532 78.5494 116.322 80.3494 118.562 81.7094C120.852 83.0694 123.372 83.7595 126.112 83.7794C128.862 83.7994 131.362 83.1394 133.612 81.7994C135.912 80.4694 137.752 78.6794 139.112 76.4394C140.472 74.1494 141.162 71.6294 141.182 68.8894L141.202 68.8795ZM134.952 62.3994C134.932 65.1494 134.222 67.6595 132.812 69.9495C131.452 72.1895 129.642 73.9794 127.382 75.3094C125.132 76.6494 122.622 77.2994 119.882 77.2894C117.132 77.2694 114.622 76.5794 112.332 75.2194C110.092 73.8594 108.302 72.0494 106.972 69.7894C105.642 67.4794 104.982 64.9594 104.992 62.2094C105.012 59.4594 105.702 56.9695 107.062 54.7295C108.422 52.4394 110.232 50.6294 112.492 49.2894C114.802 47.9594 117.322 47.2994 120.072 47.3094C122.822 47.3294 125.312 48.0194 127.552 49.3794C129.792 50.7394 131.582 52.5694 132.912 54.8794C134.302 57.1394 134.982 59.6394 134.962 62.3794L134.952 62.3994ZM128.542 56.0695C128.562 53.3195 127.902 50.8195 126.562 48.5695C125.232 46.2594 123.412 44.4295 121.122 43.0695C118.882 41.7094 116.392 41.0195 113.642 40.9995C110.892 40.9795 108.372 41.6395 106.062 42.9795C103.812 44.3195 102.002 46.1294 100.632 48.4194C99.2719 50.6595 98.5819 53.1494 98.5619 55.8994C98.5419 58.6494 99.2019 61.1694 100.542 63.4795C101.882 65.7394 103.662 67.5395 105.902 68.9095C108.192 70.2695 110.712 70.9594 113.452 70.9795C116.202 70.9995 118.702 70.3394 120.952 68.9994C123.262 67.6694 125.092 65.8795 126.452 63.6395C127.812 61.3494 128.502 58.8295 128.522 56.0895L128.542 56.0695ZM122.212 49.6694C122.192 52.4194 121.512 54.9294 120.142 57.2194C118.782 59.4594 116.952 61.2494 114.642 62.5794C112.382 63.9194 109.882 64.5694 107.142 64.5594C104.392 64.5394 101.882 63.8494 99.5919 62.4894C97.3519 61.1294 95.5619 59.3194 94.2319 57.0594C92.9019 54.7494 92.2419 52.2295 92.2519 49.4795C92.2719 46.7295 92.9619 44.2395 94.3219 41.9995C95.6819 39.7094 97.4919 37.8994 99.7519 36.5594C102.062 35.2294 104.582 34.5694 107.332 34.5794C110.082 34.5994 112.572 35.2894 114.812 36.6494C117.102 38.0094 118.912 39.8494 120.252 42.1494C121.582 44.4094 122.242 46.9094 122.232 49.6494L122.212 49.6694ZM115.962 43.1894C115.982 40.4394 115.322 37.9394 113.982 35.6894C112.652 33.3794 110.832 31.5494 108.542 30.1894C106.302 28.8294 103.812 28.1394 101.062 28.1194C98.3119 28.0994 95.7919 28.7594 93.4819 30.0994C91.2219 31.4394 89.4219 33.2494 88.0519 35.5394C86.6919 37.7794 86.0019 40.2695 85.9819 43.0195C85.9619 45.7695 86.6219 48.2894 87.9619 50.5994C89.3019 52.8594 91.0819 54.6595 93.3219 56.0195C95.6119 57.3795 98.1319 58.0695 100.872 58.0895C103.622 58.1095 106.122 57.4495 108.372 56.1095C110.682 54.7794 112.512 52.9895 113.872 50.7495C115.232 48.4594 115.922 45.9395 115.942 43.1995L115.962 43.1894ZM109.632 36.7894C109.612 39.5394 108.932 42.0494 107.562 44.3395C106.202 46.5795 104.372 48.3694 102.062 49.6995C99.8119 51.0295 97.3019 51.6894 94.5619 51.6795C91.8119 51.6595 89.3019 50.9695 87.0119 49.6095C84.7219 48.2495 82.9119 46.4394 81.5719 44.1795C80.2919 41.8795 79.6519 39.3494 79.6719 36.5994C79.6919 33.8494 80.3519 31.3594 81.6619 29.1194C83.0219 26.8294 84.8619 25.0194 87.1619 23.6794C89.4719 22.3494 91.9919 21.6894 94.7419 21.6994C97.4919 21.7194 99.9819 22.4094 102.222 23.7694C104.512 25.1294 106.322 26.9694 107.662 29.2694C108.992 31.5294 109.662 34.0294 109.642 36.7694L109.632 36.7894ZM103.232 30.3894C103.252 27.6394 102.592 25.1394 101.252 22.8894C99.9219 20.5794 98.1019 18.7494 95.8119 17.3894C93.5719 16.0294 91.0819 15.3394 88.3319 15.3194C85.5819 15.2994 83.0619 15.9594 80.7519 17.2994C78.4919 18.6394 76.6919 20.4494 75.3219 22.7394C73.9619 24.9794 73.2719 27.4694 73.2519 30.2194C73.2319 32.9694 73.8919 35.4894 75.2319 37.7994C76.5719 40.0594 78.3519 41.8594 80.5919 43.2194C82.8819 44.5794 85.4019 45.2694 88.1419 45.2894C90.8919 45.3094 93.3919 44.6494 95.6419 43.3094C97.9519 41.9794 99.7819 40.1894 101.142 37.9494C102.502 35.6595 103.192 33.1394 103.212 30.3994L103.232 30.3894ZM96.8319 23.9094C96.8119 26.6594 96.1219 29.1694 94.7619 31.4594C93.4019 33.6994 91.5719 35.4894 89.2619 36.8194C87.0019 38.1594 84.5019 38.8094 81.7619 38.7994C79.0119 38.7794 76.5019 38.0894 74.2119 36.7294C71.9719 35.3694 70.1819 33.5594 68.8519 31.2994C67.5219 28.9894 66.8619 26.4694 66.8719 23.7194C66.8919 20.9694 67.5819 18.4794 68.9419 16.2394C70.3019 13.9494 72.1119 12.1394 74.3719 10.7994C76.6819 9.46945 79.2019 8.80945 81.9519 8.81945C84.7019 8.83945 87.1919 9.52945 89.4319 10.8894C91.7219 12.2494 93.5319 14.0894 94.8719 16.3894C96.2119 18.6494 96.8619 21.1494 96.8519 23.8894L96.8319 23.9094ZM38.7819 74.7294C38.7619 77.4794 38.0719 79.9894 36.7119 82.2794C35.3519 84.5194 33.5219 86.3094 31.2119 87.6394C28.9519 88.9794 26.4519 89.6294 23.7119 89.6194C20.9619 89.5994 18.4519 88.9094 16.1619 87.5494C13.9219 86.1894 12.1319 84.3794 10.8019 82.1194C9.47189 79.8094 8.81189 77.2894 8.82189 74.5394C8.84189 71.7894 9.53189 69.2995 10.8919 67.0595C12.2519 64.7695 14.0619 62.9594 16.3219 61.6194C18.6319 60.2894 21.1519 59.6295 23.9019 59.6395C26.6519 59.6595 29.1419 60.3494 31.3819 61.7094C33.6719 63.0695 35.4819 64.9094 36.8219 67.2094C38.1619 69.4694 38.8119 71.9694 38.8019 74.7094L38.7819 74.7294Z" fill="black"/>
<path d="M47.8419 74.8094C47.8619 72.0594 47.2019 69.5595 45.8619 67.3095C44.5319 64.9995 42.7119 63.1694 40.4219 61.8094C38.1819 60.4494 35.6919 59.7594 32.9419 59.7394C30.1919 59.7194 27.6719 60.3794 25.3619 61.7194C23.1019 63.0494 21.3019 64.8694 19.9319 67.1595C18.5719 69.3995 17.8819 71.8894 17.8619 74.6394C17.8419 77.3894 18.5019 79.9094 19.8419 82.2194C21.1819 84.4794 22.9619 86.2794 25.2019 87.6394C27.4919 88.9994 30.0119 89.6894 32.7519 89.7094C35.5019 89.7294 38.0019 89.0694 40.2519 87.7294C42.5619 86.3994 44.3919 84.6094 45.7519 82.3694C47.1119 80.0794 47.8019 77.5594 47.8219 74.8194L47.8419 74.8094ZM56.9019 74.8594C56.8819 77.6094 56.1919 80.1194 54.8319 82.4094C53.4719 84.6494 51.6419 86.4394 49.3319 87.7694C47.0719 89.0994 44.5719 89.7594 41.8319 89.7494C39.0819 89.7294 36.5719 89.0394 34.2819 87.6794C32.0419 86.3194 30.2519 84.5094 28.9219 82.2494C27.5919 79.9394 26.9319 77.4194 26.9419 74.6694C26.9619 71.9194 27.6419 69.4295 29.0119 67.1894C30.3719 64.8994 32.1819 63.0895 34.4419 61.7495C36.7519 60.4194 39.2719 59.7595 42.0219 59.7695C44.7719 59.7895 47.2619 60.4795 49.5019 61.8395C51.7919 63.1995 53.6019 65.0395 54.9419 67.3395C56.2819 69.5994 56.9319 72.0994 56.9219 74.8394L56.9019 74.8594ZM65.9619 74.9094C65.9819 72.1594 65.3219 69.6595 63.9819 67.4095C62.6519 65.0994 60.8319 63.2695 58.5419 61.9095C56.3019 60.5494 53.8119 59.8595 51.0619 59.8395C48.3119 59.8195 45.7919 60.4795 43.4819 61.8195C41.2219 63.1595 39.4219 64.9694 38.0519 67.2594C36.6919 69.4995 36.0019 71.9894 35.9819 74.7394C35.9619 77.4894 36.6219 80.0094 37.9619 82.3194C39.3019 84.5794 41.0819 86.3794 43.3219 87.7494C45.6119 89.1094 48.1319 89.7994 50.8719 89.8194C53.6219 89.8394 56.1219 89.1794 58.3719 87.8394C60.6819 86.5094 62.5119 84.7194 63.8719 82.4794C65.2319 80.1894 65.9219 77.6694 65.9419 74.9294L65.9619 74.9094ZM93.1519 75.0694C93.1319 77.8194 92.4419 80.3294 91.0819 82.6194C89.7219 84.8594 87.8919 86.6494 85.5819 87.9794C83.3219 89.3194 80.8219 89.9694 78.0819 89.9594C75.3319 89.9394 72.8219 89.2494 70.5319 87.8894C68.2919 86.5294 66.5019 84.7194 65.1719 82.4694C63.8419 80.1594 63.1819 77.6394 63.1919 74.8894C63.2119 72.1394 63.9019 69.6495 65.2619 67.4095C66.6219 65.1194 68.4319 63.3094 70.6919 61.9694C73.0019 60.6394 75.5219 59.9795 78.2719 59.9894C81.0219 60.0094 83.5119 60.6994 85.7519 62.0594C88.0419 63.4194 89.8519 65.2595 91.1919 67.5595C92.5319 69.8195 93.1819 72.3194 93.1719 75.0594L93.1519 75.0694ZM102.212 75.1194C102.232 72.3694 101.572 69.8694 100.232 67.6194C98.9019 65.3094 97.0819 63.4795 94.7919 62.1194C92.5519 60.7594 90.0619 60.0695 87.3119 60.0494C84.5619 60.0294 82.0419 60.6894 79.7319 62.0294C77.4719 63.3694 75.6719 65.1794 74.3019 67.4694C72.9419 69.7094 72.2519 72.1994 72.2319 74.9494C72.2119 77.6994 72.8719 80.2195 74.2119 82.5294C75.5519 84.7895 77.3319 86.5894 79.5719 87.9594C81.8619 89.3194 84.3819 90.0095 87.1219 90.0294C89.8719 90.0494 92.3719 89.3894 94.6219 88.0494C96.9319 86.7194 98.7619 84.9294 100.122 82.6894C101.482 80.3994 102.172 77.8794 102.192 75.1394L102.212 75.1194ZM75.0219 74.9594C75.0019 77.7094 74.3119 80.2194 72.9519 82.5094C71.5919 84.7494 69.7619 86.5394 67.4519 87.8694C65.1919 89.2094 62.6919 89.8595 59.9519 89.8494C57.2019 89.8295 54.6919 89.1395 52.4019 87.7794C50.1619 86.4194 48.3719 84.6095 47.0419 82.3494C45.7119 80.0395 45.0519 77.5194 45.0619 74.7694C45.0819 72.0194 45.7719 69.5294 47.1319 67.2894C48.4919 64.9994 50.3019 63.1894 52.5619 61.8494C54.8619 60.5194 57.3919 59.8595 60.1419 59.8694C62.8919 59.8895 65.3819 60.5794 67.6219 61.9394C69.9119 63.2994 71.7219 65.1395 73.0619 67.4394C74.3919 69.6994 75.0519 72.1994 75.0419 74.9394L75.0219 74.9594ZM84.0819 75.0094C84.1019 72.2594 83.4419 69.7594 82.1019 67.5094C80.7719 65.1994 78.9519 63.3694 76.6619 62.0094C74.4219 60.6494 71.9319 59.9594 69.1819 59.9394C66.4319 59.9194 63.9119 60.5794 61.6019 61.9194C59.3419 63.2495 57.5419 65.0694 56.1719 67.3594C54.8119 69.5994 54.1219 72.0894 54.1019 74.8394C54.0819 77.5894 54.7419 80.1095 56.0819 82.4194C57.4219 84.6795 59.2019 86.4794 61.4419 87.8494C63.7319 89.2094 66.2519 89.8995 68.9919 89.9194C71.7419 89.9394 74.2419 89.2794 76.4919 87.9394C78.8019 86.6094 80.6319 84.8194 81.9919 82.5794C83.3519 80.2894 84.0419 77.7694 84.0619 75.0294L84.0819 75.0094ZM129.402 75.2794C129.382 78.0294 128.692 80.5394 127.332 82.8294C125.972 85.0694 124.142 86.8594 121.832 88.1894C119.582 89.5194 117.072 90.1795 114.332 90.1694C111.582 90.1495 109.072 89.4594 106.782 88.0994C104.542 86.7394 102.752 84.9294 101.422 82.6794C100.092 80.3694 99.4319 77.8494 99.4419 75.0994C99.4619 72.3494 100.152 69.8595 101.512 67.6194C102.872 65.3294 104.682 63.5195 106.942 62.1795C109.252 60.8494 111.772 60.1895 114.522 60.1995C117.272 60.2195 119.762 60.9095 122.002 62.2695C124.292 63.6295 126.102 65.4695 127.442 67.7695C128.772 70.0294 129.432 72.5294 129.422 75.2694L129.402 75.2794ZM138.462 75.3294C138.482 72.5794 137.822 70.0794 136.482 67.8294C135.152 65.5194 133.332 63.6894 131.042 62.3294C128.802 60.9694 126.312 60.2794 123.562 60.2594C120.812 60.2394 118.292 60.8994 115.982 62.2394C113.722 63.5794 111.922 65.3894 110.552 67.6794C109.192 69.9194 108.502 72.4094 108.482 75.1594C108.462 77.9094 109.122 80.4295 110.462 82.7394C111.792 84.9995 113.582 86.7994 115.822 88.1694C118.112 89.5294 120.632 90.2195 123.372 90.2394C126.122 90.2594 128.622 89.5994 130.872 88.2594C133.182 86.9294 135.012 85.1394 136.372 82.8994C137.732 80.6094 138.422 78.0894 138.442 75.3494L138.462 75.3294ZM111.272 75.1694C111.252 77.9194 110.562 80.4294 109.202 82.7194C107.842 84.9594 106.012 86.7494 103.702 88.0794C101.452 89.4194 98.9419 90.0695 96.2019 90.0594C93.4519 90.0395 90.9419 89.3494 88.6519 87.9894C86.4119 86.6294 84.6219 84.8195 83.2919 82.5594C81.9619 80.2495 81.3019 77.7294 81.3119 74.9794C81.3319 72.2294 82.0219 69.7394 83.3819 67.4994C84.7419 65.2094 86.5519 63.3994 88.8119 62.0594C91.1219 60.7294 93.6419 60.0695 96.3919 60.0794C99.1419 60.0994 101.632 60.7894 103.872 62.1494C106.162 63.5094 107.972 65.3494 109.302 67.6494C110.642 69.9094 111.302 72.4094 111.282 75.1494L111.272 75.1694ZM120.332 75.2194C120.352 72.4694 119.692 69.9694 118.352 67.7194C117.022 65.4094 115.202 63.5794 112.912 62.2194C110.672 60.8594 108.182 60.1694 105.432 60.1494C102.682 60.1294 100.162 60.7894 97.8519 62.1294C95.5919 63.4594 93.7919 65.2794 92.4219 67.5694C91.0619 69.8094 90.3719 72.2994 90.3519 75.0494C90.3319 77.7994 90.9919 80.3195 92.3319 82.6294C93.6719 84.8895 95.4519 86.6894 97.6919 88.0594C99.9819 89.4194 102.502 90.1095 105.242 90.1294C107.992 90.1494 110.492 89.4894 112.742 88.1494C115.052 86.8194 116.882 85.0294 118.242 82.7894C119.602 80.4994 120.292 77.9794 120.312 75.2394L120.332 75.2194ZM147.522 75.3794C147.502 78.1294 146.812 80.6394 145.452 82.9294C144.092 85.1694 142.262 86.9594 139.952 88.2894C137.702 89.6294 135.192 90.2794 132.452 90.2694C129.702 90.2495 127.192 89.5594 124.902 88.1994C122.662 86.8394 120.872 85.0294 119.542 82.7694C118.212 80.4594 117.552 77.9394 117.562 75.1894C117.582 72.4394 118.272 69.9494 119.632 67.7094C120.992 65.4194 122.802 63.6095 125.052 62.2695C127.362 60.9394 129.882 60.2794 132.632 60.2894C135.382 60.3094 137.872 60.9995 140.112 62.3595C142.402 63.7195 144.212 65.5594 145.552 67.8594C146.882 70.1194 147.542 72.6194 147.532 75.3594L147.522 75.3794ZM96.2119 126.239C96.1919 128.989 95.5019 131.479 94.1419 133.719C92.7819 136.009 90.9419 137.819 88.6419 139.159C86.3819 140.499 83.8819 141.149 81.1419 141.139C78.3919 141.119 75.8819 140.429 73.5919 139.069C71.3519 137.709 69.5619 135.879 68.2319 133.569C66.9019 131.319 66.2419 128.809 66.2519 126.069C66.2719 123.319 66.9619 120.829 68.3219 118.589C69.6819 116.299 71.4919 114.489 73.7519 113.149C76.0619 111.809 78.5819 111.159 81.3319 111.169C84.0819 111.189 86.5719 111.879 88.8119 113.239C91.1019 114.599 92.9119 116.429 94.2519 118.739C95.5919 120.989 96.2419 123.499 96.2319 126.239H96.2119ZM141.122 81.7794C141.142 79.0294 140.482 76.5294 139.142 74.2794C137.802 71.9694 135.992 70.1395 133.702 68.7795C131.462 67.4195 128.972 66.7294 126.222 66.7094C123.472 66.6894 120.952 67.3494 118.642 68.6894C116.392 70.0195 114.582 71.8394 113.212 74.1294C111.852 76.3694 111.162 78.8594 111.142 81.6094C111.122 84.3594 111.782 86.8794 113.122 89.1894C114.452 91.4494 116.242 93.2494 118.482 94.6194C120.772 95.9794 123.292 96.6694 126.032 96.6894C128.782 96.7094 131.282 96.0494 133.532 94.7094C135.842 93.3794 137.672 91.5894 139.032 89.3494C140.392 87.0594 141.082 84.5394 141.102 81.7994L141.122 81.7794ZM134.792 88.1794C134.772 90.9294 134.062 93.4394 132.652 95.7294C131.292 97.9694 129.482 99.7594 127.232 101.089C124.972 102.419 122.472 103.089 119.732 103.069C116.982 103.049 114.472 102.359 112.182 100.999C109.942 99.6394 108.152 97.8294 106.822 95.5694C105.482 93.2594 104.822 90.7394 104.842 87.9894C104.862 85.2394 105.552 82.7494 106.912 80.5094C108.272 78.2194 110.082 76.4094 112.342 75.0694C114.642 73.7394 117.172 73.0794 119.922 73.0894C122.672 73.1094 125.162 73.7994 127.402 75.1594C129.642 76.5194 131.432 78.3494 132.762 80.6594C134.142 82.9194 134.832 85.4194 134.812 88.1594L134.792 88.1794ZM128.312 94.4294C128.332 91.6794 127.672 89.1794 126.332 86.9294C125.002 84.6194 123.182 82.7894 120.892 81.4294C118.652 80.0694 116.162 79.3794 113.412 79.3594C110.662 79.3394 108.142 79.9995 105.832 81.3394C103.582 82.6794 101.772 84.4894 100.402 86.7794C99.0419 89.0194 98.3519 91.5094 98.3319 94.2594C98.3119 97.0094 98.9719 99.5294 100.312 101.839C101.652 104.089 103.432 105.899 105.672 107.259C107.962 108.619 110.482 109.309 113.222 109.329C115.972 109.349 118.472 108.689 120.722 107.349C123.032 106.019 124.862 104.229 126.222 101.989C127.582 99.6994 128.272 97.1794 128.292 94.4394L128.312 94.4294ZM121.912 100.759C121.892 103.509 121.202 106.019 119.842 108.309C118.482 110.549 116.652 112.339 114.342 113.669C112.092 115.009 109.582 115.659 106.842 115.649C104.092 115.629 101.582 114.939 99.2919 113.579C97.0519 112.219 95.2619 110.409 93.9319 108.149C92.6019 105.839 91.9419 103.319 91.9519 100.569C91.9719 97.8194 92.6619 95.3294 94.0219 93.0894C95.3819 90.7994 97.1919 88.9894 99.4519 87.6494C101.752 86.3194 104.282 85.6594 107.032 85.6694C109.782 85.6894 112.272 86.3794 114.512 87.7394C116.802 89.0994 118.612 90.9394 119.952 93.2394C121.282 95.4995 121.952 97.9995 121.932 100.739L121.912 100.759ZM115.582 107.159C115.602 104.409 114.942 101.909 113.602 99.6594C112.262 97.3494 110.452 95.5194 108.162 94.1594C105.922 92.7994 103.432 92.1094 100.682 92.0894C97.9319 92.0695 95.4119 92.7294 93.1019 94.0694C90.8419 95.4094 89.0419 97.2194 87.6719 99.5094C86.3119 101.749 85.6219 104.239 85.6019 106.989C85.5819 109.739 86.2419 112.259 87.5819 114.569C88.9119 116.819 90.7019 118.629 92.9419 119.989C95.2319 121.349 97.7519 122.039 100.492 122.059C103.242 122.079 105.742 121.419 107.992 120.079C110.302 118.739 112.132 116.959 113.492 114.719C114.852 112.429 115.542 109.909 115.562 107.169L115.582 107.159ZM109.182 113.489C109.162 116.239 108.472 118.749 107.112 121.039C105.752 123.279 103.922 125.069 101.612 126.399C99.3519 127.729 96.8519 128.399 94.1119 128.379C91.3619 128.359 88.8519 127.669 86.5619 126.309C84.2719 124.949 82.4619 123.139 81.1219 120.879C79.8419 118.569 79.2019 116.049 79.2219 113.299C79.2419 110.549 79.9019 108.059 81.2119 105.819C82.5719 103.529 84.4119 101.719 86.7119 100.379C89.0219 99.0494 91.5419 98.3894 94.2919 98.3994C97.0419 98.4194 99.5319 99.1094 101.772 100.469C104.062 101.829 105.872 103.669 107.212 105.969C108.552 108.229 109.202 110.729 109.192 113.469L109.182 113.489ZM102.702 119.819C102.722 117.069 102.062 114.569 100.722 112.319C99.3919 110.009 97.5719 108.179 95.2819 106.819C93.0419 105.459 90.5519 104.769 87.8019 104.749C85.0519 104.729 82.5319 105.389 80.2219 106.729C77.9619 108.059 76.1619 109.879 74.7919 112.169C73.4319 114.409 72.7419 116.899 72.7219 119.649C72.7019 122.399 73.3619 124.919 74.7019 127.229C76.0419 129.489 77.8219 131.289 80.0619 132.659C82.3519 134.019 84.8719 134.709 87.6119 134.729C90.3619 134.749 92.8619 134.089 95.1119 132.749C97.4219 131.419 99.2519 129.629 100.612 127.389C101.972 125.099 102.662 122.579 102.682 119.839L102.702 119.819ZM141.202 68.8795C141.222 66.1295 140.562 63.6294 139.222 61.3794C137.882 59.0694 136.072 57.2394 133.782 55.8794C131.542 54.5194 129.052 53.8294 126.302 53.8094C123.552 53.7894 121.032 54.4494 118.722 55.7894C116.462 57.1294 114.662 58.9394 113.292 61.2295C111.932 63.4695 111.242 65.9594 111.222 68.7094C111.202 71.4594 111.862 73.9794 113.202 76.2894C114.532 78.5494 116.322 80.3494 118.562 81.7094C120.852 83.0694 123.372 83.7595 126.112 83.7794C128.862 83.7994 131.362 83.1394 133.612 81.7994C135.912 80.4694 137.752 78.6794 139.112 76.4394C140.472 74.1494 141.162 71.6294 141.182 68.8894L141.202 68.8795ZM134.952 62.3994C134.932 65.1494 134.222 67.6595 132.812 69.9495C131.452 72.1895 129.642 73.9794 127.382 75.3094C125.132 76.6494 122.622 77.2994 119.882 77.2894C117.132 77.2694 114.622 76.5794 112.332 75.2194C110.092 73.8594 108.302 72.0494 106.972 69.7894C105.642 67.4794 104.982 64.9594 104.992 62.2094C105.012 59.4594 105.702 56.9695 107.062 54.7295C108.422 52.4394 110.232 50.6294 112.492 49.2894C114.802 47.9594 117.322 47.2994 120.072 47.3094C122.822 47.3294 125.312 48.0194 127.552 49.3794C129.792 50.7394 131.582 52.5694 132.912 54.8794C134.302 57.1394 134.982 59.6394 134.962 62.3794L134.952 62.3994ZM128.542 56.0695C128.562 53.3195 127.902 50.8195 126.562 48.5695C125.232 46.2594 123.412 44.4295 121.122 43.0695C118.882 41.7094 116.392 41.0195 113.642 40.9995C110.892 40.9795 108.372 41.6395 106.062 42.9795C103.812 44.3195 102.002 46.1294 100.632 48.4194C99.2719 50.6595 98.5819 53.1494 98.5619 55.8994C98.5419 58.6494 99.2019 61.1694 100.542 63.4795C101.882 65.7394 103.662 67.5395 105.902 68.9095C108.192 70.2695 110.712 70.9594 113.452 70.9795C116.202 70.9995 118.702 70.3394 120.952 68.9994C123.262 67.6694 125.092 65.8795 126.452 63.6395C127.812 61.3494 128.502 58.8295 128.522 56.0895L128.542 56.0695ZM122.212 49.6694C122.192 52.4194 121.512 54.9294 120.142 57.2194C118.782 59.4594 116.952 61.2494 114.642 62.5794C112.382 63.9194 109.882 64.5694 107.142 64.5594C104.392 64.5394 101.882 63.8494 99.5919 62.4894C97.3519 61.1294 95.5619 59.3194 94.2319 57.0594C92.9019 54.7494 92.2419 52.2295 92.2519 49.4795C92.2719 46.7295 92.9619 44.2395 94.3219 41.9995C95.6819 39.7094 97.4919 37.8994 99.7519 36.5594C102.062 35.2294 104.582 34.5694 107.332 34.5794C110.082 34.5994 112.572 35.2894 114.812 36.6494C117.102 38.0094 118.912 39.8494 120.252 42.1494C121.582 44.4094 122.242 46.9094 122.232 49.6494L122.212 49.6694ZM115.962 43.1894C115.982 40.4394 115.322 37.9394 113.982 35.6894C112.652 33.3794 110.832 31.5494 108.542 30.1894C106.302 28.8294 103.812 28.1394 101.062 28.1194C98.3119 28.0994 95.7919 28.7594 93.4819 30.0994C91.2219 31.4394 89.4219 33.2494 88.0519 35.5394C86.6919 37.7794 86.0019 40.2695 85.9819 43.0195C85.9619 45.7695 86.6219 48.2894 87.9619 50.5994C89.3019 52.8594 91.0819 54.6595 93.3219 56.0195C95.6119 57.3795 98.1319 58.0695 100.872 58.0895C103.622 58.1095 106.122 57.4495 108.372 56.1095C110.682 54.7794 112.512 52.9895 113.872 50.7495C115.232 48.4594 115.922 45.9395 115.942 43.1995L115.962 43.1894ZM109.632 36.7894C109.612 39.5394 108.932 42.0494 107.562 44.3395C106.202 46.5795 104.372 48.3694 102.062 49.6995C99.8119 51.0295 97.3019 51.6894 94.5619 51.6795C91.8119 51.6595 89.3019 50.9695 87.0119 49.6095C84.7219 48.2495 82.9119 46.4394 81.5719 44.1795C80.2919 41.8795 79.6519 39.3494 79.6719 36.5994C79.6919 33.8494 80.3519 31.3594 81.6619 29.1194C83.0219 26.8294 84.8619 25.0194 87.1619 23.6794C89.4719 22.3494 91.9919 21.6894 94.7419 21.6994C97.4919 21.7194 99.9819 22.4094 102.222 23.7694C104.512 25.1294 106.322 26.9694 107.662 29.2694C108.992 31.5294 109.662 34.0294 109.642 36.7694L109.632 36.7894ZM103.232 30.3894C103.252 27.6394 102.592 25.1394 101.252 22.8894C99.9219 20.5794 98.1019 18.7494 95.8119 17.3894C93.5719 16.0294 91.0819 15.3394 88.3319 15.3194C85.5819 15.2994 83.0619 15.9594 80.7519 17.2994C78.4919 18.6394 76.6919 20.4494 75.3219 22.7394C73.9619 24.9794 73.2719 27.4694 73.2519 30.2194C73.2319 32.9694 73.8919 35.4894 75.2319 37.7994C76.5719 40.0594 78.3519 41.8594 80.5919 43.2194C82.8819 44.5794 85.4019 45.2694 88.1419 45.2894C90.8919 45.3094 93.3919 44.6494 95.6419 43.3094C97.9519 41.9794 99.7819 40.1894 101.142 37.9494C102.502 35.6595 103.192 33.1394 103.212 30.3994L103.232 30.3894ZM96.8319 23.9094C96.8119 26.6594 96.1219 29.1694 94.7619 31.4594C93.4019 33.6994 91.5719 35.4894 89.2619 36.8194C87.0019 38.1594 84.5019 38.8094 81.7619 38.7994C79.0119 38.7794 76.5019 38.0894 74.2119 36.7294C71.9719 35.3694 70.1819 33.5594 68.8519 31.2994C67.5219 28.9894 66.8619 26.4694 66.8719 23.7194C66.8919 20.9694 67.5819 18.4794 68.9419 16.2394C70.3019 13.9494 72.1119 12.1394 74.3719 10.7994C76.6819 9.46945 79.2019 8.80945 81.9519 8.81945C84.7019 8.83945 87.1919 9.52945 89.4319 10.8894C91.7219 12.2494 93.5319 14.0894 94.8719 16.3894C96.2119 18.6494 96.8619 21.1494 96.8519 23.8894L96.8319 23.9094ZM38.7819 74.7294C38.7619 77.4794 38.0719 79.9894 36.7119 82.2794C35.3519 84.5194 33.5219 86.3094 31.2119 87.6394C28.9519 88.9794 26.4519 89.6294 23.7119 89.6194C20.9619 89.5994 18.4519 88.9094 16.1619 87.5494C13.9219 86.1894 12.1319 84.3794 10.8019 82.1194C9.47189 79.8094 8.81189 77.2894 8.82189 74.5394C8.84189 71.7894 9.53189 69.2995 10.8919 67.0595C12.2519 64.7695 14.0619 62.9594 16.3219 61.6194C18.6319 60.2894 21.1519 59.6295 23.9019 59.6395C26.6519 59.6595 29.1419 60.3494 31.3819 61.7094C33.6719 63.0695 35.4819 64.9094 36.8219 67.2094C38.1619 69.4694 38.8119 71.9694 38.8019 74.7094L38.7819 74.7294Z" fill="black" fill-opacity="0.2"/>
</svg>
